<svg width="11" height="13" viewBox="0 0 11 13" fill="none" xmlns="http://www.w3.org/2000/svg">
<path d="M4.26089 7.37419C4.85135 8.17219 5.60801 8.82949 6.47774 9.29994L7.85485 8.47268C7.89514 8.45213 7.94062 8.4444 7.98527 8.45052C8.02993 8.45664 8.07166 8.47631 8.10493 8.50693L10.2029 10.3216C10.2831 10.3867 10.3471 10.4697 10.39 10.5642C10.4328 10.6587 10.4533 10.762 10.4498 10.8659C10.4462 10.9699 10.4188 11.0717 10.3697 11.1632C10.3206 11.2548 10.2511 11.3336 10.1667 11.3935C10.0823 11.4534 9.01222 12.2852 8.93988 12.3226C8.86755 12.36 8.86755 12.36 8.688 12.4472C8.47108 12.4807 8.29254 12.4388 8.086 12.3647C6.025 11.6315 4.21146 10.3269 2.85263 8.60009C1.53062 6.86303 0.737226 4.77454 0.568698 2.58794C0.552288 2.3702 0.531395 2.24419 0.554502 2.07804C0.576725 1.91176 0.599973 1.74563 0.703014 1.60744C0.806056 1.46924 1.97113 0.670419 1.97113 0.670419C2.05021 0.608033 2.14219 0.564483 2.24018 0.543028C2.33818 0.521574 2.43965 0.522771 2.537 0.54653C2.63435 0.57029 2.72506 0.615995 2.80233 0.680225C2.8796 0.744455 2.94143 0.825545 2.98319 0.917422L4.20192 3.42436C4.22342 3.46405 4.23171 3.5097 4.22556 3.55459C4.21942 3.59948 4.19915 3.64122 4.16776 3.67366L2.98956 4.76184C3.21584 5.71763 3.65012 6.61 4.26089 7.37419Z" fill="white"/>
</svg>
